<?xml version="1.0" encoding="UTF-8"?>
<svg width="5px" height="7px" viewBox="0 0 5 7" version="1.1" xmlns="http://www.w3.org/2000/svg" xmlns:xlink="http://www.w3.org/1999/xlink">
    <!-- Generator: Sketch 47.1 (45422) - http://www.bohemiancoding.com/sketch -->
    <title>glosnik-2x</title>
    <desc>Created with Sketch.</desc>
    <defs></defs>
    <g id="Symbols" stroke="none" stroke-width="1" fill="none" fill-rule="evenodd">
        <g id="Group-Copy" transform="translate(3.535534, 3.535534) rotate(-315.000000) translate(-3.535534, -3.535534) translate(1.035534, 1.035534)" fill="#FFFFFF">
            <path class="full" d="M0.0324,0.490200008 C0.0324,0.260200004 0.212400004,0.0802 0.441400008,0.0802 C2.92140006,0.0802 4.9314001,2.09020004 4.9314001,4.57020009 C4.9314001,4.80020009 4.75240009,4.9802001 4.52140009,4.9802001 C4.30140008,4.9802001 4.11240008,4.80020009 4.11240008,4.57020009 C4.11240008,2.55020005 2.46240005,0.900200016 0.441400008,0.900200016 C0.212400004,0.900200016 0.0324,0.710200012 0.0324,0.490200008 Z" id="on"></path>
            <path class="on"  d="M2.1314,4.5702 C2.1314,3.6402 1.3724,2.8802 0.4414,2.8802 C0.2124,2.8802 0.0324,2.7002 0.0324,2.4702 C0.0324,2.2502 0.2124,2.0602 0.4414,2.0602 C1.8214,2.0602 2.9524,3.1902 2.9524,4.5702 C2.9524,4.8002 2.7714,4.9902 2.5424,4.9902 C2.3114,4.9902 2.1314,4.8002 2.1314,4.5702 Z" id="full"></path>
        </g>
        <path class="off" d="M4.1545,3.669375 L5.809,2 L4.1545,3.669375 L2.5,2 L4.1545,3.669375 Z M4.1545,3.669375 L5.809,5.33875 L4.1545,3.669375 L2.5,5.33875 L4.1545,3.669375 Z" id="Stroke-3" stroke="#FFFFFF" stroke-width="0.8" fill="#D8D8D8" stroke-linejoin="round"></path>
    </g>
</svg>