<?xml version="1.0" encoding="UTF-8"?>
<svg width="12px" height="12px" viewBox="0 0 12 12" version="1.1" xmlns="http://www.w3.org/2000/svg" xmlns:xlink="http://www.w3.org/1999/xlink">
    <!-- Generator: Sketch 47.1 (45422) - http://www.bohemiancoding.com/sketch -->
    <title>Group</title>
    <desc>Created with Sketch.</desc>
    <defs></defs>
    <g id="Symbols" stroke="none" stroke-width="1" fill="none" fill-rule="evenodd">
        <g id="Volume-1" transform="translate(-6.000000, -5.000000)">
            <g id="Group" transform="translate(6.500000, 6.000000)">
                <path d="M0.174880763,3.37201908 C0.0779014308,3.37201908 0,3.44992051 0,3.54689984 L0,6.45468998 C0,6.55166932 0.0779014308,6.62798092 0.174880763,6.62798092 L2.11287758,6.62798092 C2.30842607,6.62798092 2.49761526,6.70111288 2.64387917,6.83306836 L6.16534181,10 L6.16534181,0 L2.64387917,3.16852146 C2.49761526,3.29888712 2.30842607,3.37201908 2.11287758,3.37201908 L0.174880763,3.37201908 Z" id="Path-Copy" stroke="#FFFFFF" stroke-linecap="round" stroke-linejoin="round"></path>
                <g id="Group-Copy" transform="translate(9.535534, 4.535534) rotate(-315.000000) translate(-9.535534, -4.535534) translate(7.035534, 2.035534)" fill="#FFFFFF">
                    <path d="M0.0324,0.490200008 C0.0324,0.260200004 0.212400004,0.0802 0.441400008,0.0802 C2.92140006,0.0802 4.9314001,2.09020004 4.9314001,4.57020009 C4.9314001,4.80020009 4.75240009,4.9802001 4.52140009,4.9802001 C4.30140008,4.9802001 4.11240008,4.80020009 4.11240008,4.57020009 C4.11240008,2.55020005 2.46240005,0.900200016 0.441400008,0.900200016 C0.212400004,0.900200016 0.0324,0.710200012 0.0324,0.490200008 Z" id="Path"></path>
                    <path d="M2.1314,4.5702 C2.1314,3.6402 1.3724,2.8802 0.4414,2.8802 C0.2124,2.8802 0.0324,2.7002 0.0324,2.4702 C0.0324,2.2502 0.2124,2.0602 0.4414,2.0602 C1.8214,2.0602 2.9524,3.1902 2.9524,4.5702 C2.9524,4.8002 2.7714,4.9902 2.5424,4.9902 C2.3114,4.9902 2.1314,4.8002 2.1314,4.5702 Z" id="Path"></path>
                </g>
            </g>
        </g>
    </g>
</svg>