<?xml version="1.0" encoding="UTF-8"?>
<svg width="22px" height="22px" viewBox="0 0 22 22" version="1.1" xmlns="http://www.w3.org/2000/svg" xmlns:xlink="http://www.w3.org/1999/xlink">
    <!-- Generator: Sketch 47.1 (45422) - http://www.bohemiancoding.com/sketch -->
    <title>Google+</title>
    <desc>Created with Sketch.</desc>
    <defs></defs>
    <g id="Desktop" stroke="none" stroke-width="1" fill="none" fill-rule="evenodd" opacity="0.8">
        <g id="Home-02" transform="translate(-927.000000, -281.000000)">
            <g id="Group" transform="translate(927.000000, 197.000000)">
                <g id="Google+" transform="translate(0.000000, 84.000000)">
                    <g id="Page-1" fill-rule="evenodd" transform="translate(4.000000, 6.000000)" fill="#FFFFFF">
                        <polygon id="Fill-5" points="14.399875 4.524875 14.399875 5.624875 13.024875 5.624875 13.024875 6.999875 11.924875 6.999875 11.924875 5.624875 10.562375 5.624875 10.562375 4.524875 11.924875 4.524875 11.924875 3.162375 13.024875 3.162375 13.024875 4.524875"></polygon>
                        <path d="M9.45,4.549875 L9.45,5.449875 C9.4625,8.137375 7.675,9.949875 5,9.949875 C2.38875,9.949875 0.2625,7.862375 0.2625,5.299875 C0.2625,2.737375 2.38875,0.649875 5,0.649875 C6.13875,0.649875 7.25,1.062375 8.1,1.787375 L6.8875,3.149875 C6.3625,2.687375 5.6875,2.449875 4.9875,2.449875 C3.375,2.449875 2.0875,3.724875 2.0875,5.299875 C2.0875,6.862375 3.3875,8.149875 4.9875,8.149875 C6.3375,8.149875 7.225,7.512375 7.5125,6.337375 L5.0125,6.337375 L5.0125,4.549875 L9.45,4.549875 Z" id="Fill-7"></path>
                    </g>
                    <circle id="Oval" stroke="#FFFFFF" cx="11" cy="11" r="10"></circle>
                </g>
            </g>
        </g>
    </g>
</svg>