<?xml version="1.0" encoding="UTF-8"?>
<svg width="22px" height="22px" viewBox="0 0 22 22" version="1.1" xmlns="http://www.w3.org/2000/svg" xmlns:xlink="http://www.w3.org/1999/xlink">
    <!-- Generator: Sketch 47.1 (45422) - http://www.bohemiancoding.com/sketch -->
    <title>Linkedin</title>
    <desc>Created with Sketch.</desc>
    <defs></defs>
    <g id="Desktop" stroke="none" stroke-width="1" fill="none" fill-rule="evenodd" opacity="0.8">
        <g id="Home-02" transform="translate(-927.000000, -253.000000)" class="circle">
            <g id="Group" transform="translate(927.000000, 197.000000)">
                <g id="Linkedin" transform="translate(0.000000, 56.000000)">
                    <circle id="Oval" stroke="#FFFFFF" cx="11" cy="11" r="10"></circle>
                    <g id="Group-2" fill-rule="evenodd" transform="translate(6.000000, 6.000000)" fill="#FFFFFF">
                        <path d="M0.674305556,8.84496732 L2.64930556,8.84496732 L2.64930556,3.25202614 L0.674305556,3.25202614 L0.674305556,8.84496732 Z M1.67555556,0.555555556 C0.999305556,0.555555556 0.555555556,0.973202614 0.555555556,1.52143791 C0.555555556,2.0579085 0.985555556,2.48849673 1.64930556,2.48849673 L1.66180556,2.48849673 C2.35055556,2.48849673 2.78055556,2.0579085 2.78055556,1.52143791 C2.76680556,0.973202614 2.35055556,0.555555556 1.67555556,0.555555556 L1.67555556,0.555555556 Z M9.77555556,5.6379085 L9.77555556,8.84496732 L7.79805556,8.84496732 L7.79805556,5.85202614 C7.79805556,5.10026144 7.51305556,4.58732026 6.79805556,4.58732026 C6.25180556,4.58732026 5.92680556,4.93320261 5.78430556,5.26732026 C5.73180556,5.38732026 5.71805556,5.55437908 5.71805556,5.72143791 L5.71805556,8.84496732 L3.74180556,8.84496732 C3.74180556,8.84496732 3.76930556,3.77673203 3.74180556,3.25202614 L5.71805556,3.25202614 L5.71805556,4.04379085 C5.71430556,4.0496732 5.70930556,4.05673203 5.70555556,4.06261438 L5.71805556,4.06261438 L5.71805556,4.04379085 C5.98055556,3.66379085 6.44930556,3.12026144 7.49930556,3.12026144 C8.79930556,3.12026144 9.77555556,3.91908497 9.77555556,5.6379085 L9.77555556,5.6379085 Z" id="Fill-3"></path>
                    </g>
                </g>
            </g>
        </g>
    </g>
</svg>