<?xml version="1.0" encoding="UTF-8"?>
<svg width="22px" height="22px" viewBox="0 0 22 22" version="1.1" xmlns="http://www.w3.org/2000/svg" xmlns:xlink="http://www.w3.org/1999/xlink">
    <!-- Generator: Sketch 47.1 (45422) - http://www.bohemiancoding.com/sketch -->
    <title>Subscribe</title>
    <desc>Created with Sketch.</desc>
    <defs></defs>
    <g id="Desktop" stroke="none" stroke-width="1" fill="none" fill-rule="evenodd" opacity="0.8">
        <g id="Home-02" transform="translate(-927.000000, -337.000000)">
            <g id="Group" transform="translate(927.000000, 197.000000)">
                <g id="Subscribe" transform="translate(0.000000, 140.000000)">
                    <circle id="Oval" stroke="#FFFFFF" cx="11" cy="11" r="10"></circle>
                    <g id="Group" fill-rule="evenodd" transform="translate(6.000000, 6.000000)" fill="#FFFFFF">
                        <path d="M8.7905,8.21275 C8.7905,4.36275 5.65175,1.22525 1.80175,1.22525 C1.5155,1.22525 1.2905,1.00025 1.2905,0.71275 C1.2905,0.42525 1.5155,0.20025 1.80175,0.20025 C6.21425,0.20025 9.81425,3.80025 9.81425,8.21275 C9.81425,8.50025 9.58925,8.72525 9.30175,8.72525 C9.0155,8.72525 8.7905,8.50025 8.7905,8.21275 Z" id="Path"></path>
                        <path d="M1.2905,3.11275 C1.2905,2.82525 1.5155,2.60025 1.80175,2.60025 C4.90175,2.60025 7.41425,5.11275 7.41425,8.21275 C7.41425,8.50025 7.1905,8.72525 6.90175,8.72525 C6.62675,8.72525 6.3905,8.50025 6.3905,8.21275 C6.3905,5.68775 4.328,3.62525 1.80175,3.62525 C1.5155,3.62525 1.2905,3.38775 1.2905,3.11275 Z" id="Path"></path>
                        <path d="M3.91425,8.21275 C3.91425,7.05025 2.9655,6.10025 1.80175,6.10025 C1.5155,6.10025 1.2905,5.87525 1.2905,5.58775 C1.2905,5.31275 1.5155,5.07525 1.80175,5.07525 C3.52675,5.07525 4.9405,6.48775 4.9405,8.21275 C4.9405,8.50025 4.71425,8.73775 4.428,8.73775 C4.13925,8.73775 3.91425,8.50025 3.91425,8.21275 Z" id="Path"></path>
                        <path d="M1.80175,7.60025 C2.1405,7.60025 2.41425,7.87525 2.41425,8.21275 C2.41425,8.55025 2.1405,8.83775 1.80175,8.83775 C1.46425,8.83775 1.17675,8.55025 1.17675,8.21275 C1.17675,7.87525 1.46425,7.60025 1.80175,7.60025 Z" id="Path"></path>
                    </g>
                </g>
            </g>
        </g>
    </g>
</svg>