<?xml version="1.0" encoding="UTF-8"?>
<svg width="22px" height="22px" viewBox="0 0 22 22" version="1.1" xmlns="http://www.w3.org/2000/svg" xmlns:xlink="http://www.w3.org/1999/xlink">
    <!-- Generator: Sketch 47.1 (45422) - http://www.bohemiancoding.com/sketch -->
    <title>Twitter</title>
    <desc>Created with Sketch.</desc>
    <defs></defs>
    <g id="Desktop" stroke="none" stroke-width="1" fill="none" fill-rule="evenodd" opacity="0.8">
        <g id="Home-02" transform="translate(-927.000000, -225.000000)" class="circle">
            <g id="Group" transform="translate(927.000000, 197.000000)">
                <g id="Twitter" transform="translate(0.000000, 28.000000)">
                    <circle id="Oval" stroke="#FFFFFF" stroke-width="1" cx="11" cy="11" r="10"></circle>
                    <path d="M16.42,6.175 C15.95625,6.45 15.44125,6.65 14.89,6.76 C14.45125,6.29 13.82625,6 13.13,6 C11.80125,6 10.72,7.08 10.72,8.41 C10.72,8.6 10.74,8.785 10.785,8.96 C8.78125,8.86 7.00625,7.9 5.81625,6.44 C5.61125,6.795 5.49125,7.21 5.49125,7.65 C5.49125,8.485 5.91625,9.225 6.565,9.655 C6.17125,9.645 5.80125,9.535 5.475,9.355 L5.475,9.385 C5.475,10.555 6.305,11.525 7.41,11.75 C7.21125,11.805 6.99625,11.835 6.775,11.835 C6.62,11.835 6.47,11.82 6.32125,11.79 C6.625,12.75 7.515,13.445 8.57125,13.465 C7.74625,14.11 6.70625,14.495 5.575,14.495 C5.38125,14.495 5.19125,14.485 5,14.46 C6.055,15.15 7.32625,15.55 8.68625,15.55 C13.12,15.55 15.54625,11.875 15.54625,8.69 C15.54625,8.585 15.54625,8.48 15.54125,8.38 C16.01125,8.04 16.42,7.615 16.74625,7.13 C16.315,7.32 15.85125,7.45 15.36,7.51 C15.86125,7.21 16.24,6.74 16.42,6.175" id="Fill-1" fill="#FFFFFF" fill-rule="evenodd"></path>
                </g>
            </g>
        </g>
    </g>
</svg>